<svg width="177" height="55" viewBox="0 0 177 55" fill="none" xmlns="http://www.w3.org/2000/svg">
<path d="M54.9109 27.4555C54.9109 42.6187 42.6187 54.9109 27.4555 54.9109C12.2922 54.9109 0 42.6187 0 27.4555C0 12.2922 12.2922 0 27.4555 0C42.6187 0 54.9109 12.2922 54.9109 27.4555Z" fill="white"/>
<path d="M11.9595 17.8424L12.6216 17.7556C14.3474 8.67073 22.4554 1.78923 32.2132 1.78923C36.9348 1.78923 41.2655 3.39564 44.6846 6.08745C39.9848 2.32108 34.0259 0.0742798 27.5351 0.0742798C12.3719 0.0742798 0.0742188 12.372 0.0742188 27.5352C0.0742188 42.4053 11.8943 54.5076 26.6451 54.9743C25.9504 53.1291 26.3303 51.0343 27.5351 49.1674C27.0792 47.8866 27.1444 46.5081 27.6219 45.1622C27.4374 43.8706 27.6002 42.5138 28.067 41.1571L27.839 41.4501C27.5677 41.7866 27.0792 41.8517 26.7428 41.5804L24.7999 40.0825C24.5936 39.9197 24.4851 39.6701 24.496 39.4313C24.5068 39.2793 24.5611 39.1165 24.6588 38.9862L25.6682 37.7055C19.1232 35.1547 14.4668 28.9136 14.3691 21.598L12.437 21.8368C12.3828 21.8476 12.3285 21.8476 12.2742 21.8368C11.916 21.8042 11.6121 21.5328 11.5687 21.1529L11.2648 18.7216C11.2214 18.2875 11.5253 17.8967 11.9595 17.8424Z" fill="url(#paint0_linear)"/>
<path d="M33.2698 27.9007L25.3184 38.21C18.5356 35.6121 13.6827 29.1854 13.5365 21.6191L31.2771 19.335C30.9457 20.2239 30.7606 21.1793 30.7667 22.1898C30.7913 24.4351 31.7462 26.4727 33.2698 27.9007Z" fill="url(#paint1_radial)"/>
<path d="M33.6866 14.0385L19.3066 16.9525C19.3066 16.9525 29.2288 15.4036 35.6404 15.0124C35.8841 14.9976 36.0203 14.9779 36.2644 14.9757C36.8266 14.9707 37.6959 15.1278 37.6959 15.1278H39.2742H40.9577L42.9849 16.1899L44.4175 17.5244L45.4176 19.0767L46.0393 21.201V23.2163L45.2825 25.5311L44.4175 27.1107L42.9308 28.3907L41.3631 29.3167L40.2008 29.8069L38.1736 29.9703L36.9032 29.8069L35.3101 32.0436L34.092 33.4017L36.6329 31.8221L40.336 30.2971L42.9308 29.5073L44.8229 29.3167L46.0393 29.1805H47.7422L50.3592 29.4743L50.7997 28.4098L51.2034 27.3454L51.5338 26.2075L51.7907 25.0329L51.9742 23.8584L52.0843 22.7205L52.1577 21.5459L52.121 20.3714L52.0109 19.1601L51.9375 18.6095L51.8641 18.059L51.6439 17.0312L51.3869 16.0402L51.0933 15.0858L50.7262 14.0948L49.9187 12.3697L48.891 10.6445L47.9734 9.35983L47.4595 8.77255L47.3494 8.62573L47.2026 8.47891L46.9456 8.18527L46.395 7.59799L45.8445 7.08411L45.2572 6.57024L44.6332 6.05637L44.413 5.87284L44.156 5.68932L43.6422 5.32227L42.5777 4.62487L40.4855 3.74394L39.5251 3.49896C39.5251 3.49896 26.9021 0.91173 26.6588 8.64617C26.4959 13.8252 33.6866 14.0385 33.6866 14.0385Z" fill="#E4F0FA"/>
<path d="M5.89095 22.9756C5.12031 22.9756 4.50163 23.5943 4.50163 24.3649C4.50163 23.5943 3.88295 22.9756 3.1123 22.9756C3.88295 22.9756 4.50163 22.3569 4.50163 21.5862C4.51248 22.3569 5.13117 22.9756 5.89095 22.9756Z" fill="url(#paint2_linear)"/>
<path d="M15.2908 8.53959C15.0846 8.53959 14.9218 8.7024 14.9218 8.90863C14.9218 8.7024 14.759 8.53959 14.5527 8.53959C14.759 8.53959 14.9218 8.37678 14.9218 8.17055C14.9218 8.36592 15.0846 8.53959 15.2908 8.53959Z" fill="url(#paint3_linear)"/>
<path d="M27.517 49.1665C26.3122 51.0334 25.9323 53.1282 26.627 54.9734C26.627 54.9734 27.9722 55.0088 28.833 54.9734C29.7818 54.9345 30.3163 54.9039 31.2555 54.7641C32.1265 54.6344 32.6193 54.5125 33.4522 54.3064L33.5312 54.2869C35.0628 53.9082 35.9257 53.6745 37.3853 53.0756C38.0262 52.8126 38.3754 52.6407 39.0003 52.3415C39.9313 51.8958 40.4588 51.6519 41.3494 51.1302C41.9054 50.8047 42.2096 50.6088 42.7442 50.2493C43.3153 49.8653 43.6331 49.6448 44.1757 49.2216C44.6171 48.8773 44.8509 48.6671 45.2769 48.3039C45.3775 48.2182 45.5338 48.0837 45.5338 48.0837L43.5518 48.671L41.4229 49.3317L33.1642 52.6352V50.6531L37.3853 46.3219H33.1642L40.6153 42.1008H33.1642L44.7072 36.4115L37.3853 34.8332L39.8445 33.0713L53.6457 30.8323L52.9483 30.2817L51.4801 29.621L49.0942 29.0705L46.4148 28.9236L42.4873 29.4742L40.6153 29.9514L38.3029 30.7956L36.4677 31.7132L34.6324 33.0713L32.1365 34.3927L30.1177 36.4115L28.7596 38.9853L28.0489 41.1562C27.5822 42.5129 27.4194 43.8697 27.6039 45.1613C27.1263 46.5072 27.0612 47.8857 27.517 49.1665Z" fill="white"/>
<path d="M43.0599 36.9445C39.2093 35.9274 36.6098 37.4421 33.2057 38.6735C32.8082 38.8173 32.4506 38.4295 32.6519 38.0577C34.2169 35.1675 37.2029 33.2021 38.6617 32.5943C43.5268 30.5672 43.7637 30.5198 47.6178 30.1717C49.5449 29.9977 53.0609 30.5198 53.0609 30.5198L54.9498 28.9868C54.9498 28.9868 54.8279 31.3254 54.5391 32.7919C54.2906 34.0541 53.6631 35.9674 53.6631 35.9674C53.6631 35.9674 53.118 37.7555 52.6229 38.8417C52.0988 39.9916 51.0352 41.6613 51.0352 41.6613L49.5843 43.8787C49.5843 43.8787 47.7756 46.2631 46.3267 47.4922C44.4125 49.116 40.7696 50.7224 40.7696 50.7224C40.7696 50.7224 31.2157 55.7392 31.2158 51.7626C31.2159 49.9173 33.1486 48.5188 35.0535 48.1122C35.2486 48.0706 35.2939 47.7956 35.1093 47.7198C33.7278 47.1528 33.1102 47.5371 31.855 47.6511C31.5312 47.6805 31.2964 47.3738 31.4463 47.0854C32.3461 45.3541 35.2456 43.4673 38.7288 43.2276C38.9325 43.2136 38.9955 42.9488 38.808 42.8678C36.504 41.8737 34.2858 42.6286 32.8681 42.9728C32.2689 43.1183 31.9516 42.5812 32.3594 42.1186C34.3161 39.899 39.2845 37.7898 43.0188 37.3386C43.2376 37.3122 43.273 37.0008 43.0599 36.9445Z" fill="#E4F0FA"/>
<path d="M8.00804 18.3083C7.71498 18.3083 7.47619 18.5471 7.47619 18.8401C7.47619 18.5471 7.2374 18.3083 6.94434 18.3083C7.2374 18.3083 7.47619 18.0695 7.47619 17.7764C7.48704 18.0695 7.71498 18.3083 8.00804 18.3083Z" fill="url(#paint4_linear)"/>
<path d="M11.2637 24.1478C10.7644 24.1478 10.3628 24.5494 10.3628 25.0487C10.3628 24.5494 9.9612 24.1478 9.46191 24.1478C9.9612 24.1478 10.3628 23.7462 10.3628 23.2469C10.3628 23.7462 10.7644 24.1478 11.2637 24.1478Z" fill="url(#paint5_linear)"/>
<path d="M4.11078 28.1896C3.70393 28.1896 3.37668 28.5168 3.37668 28.9237C3.37668 28.5168 3.04943 28.1896 2.64258 28.1896C3.04943 28.1896 3.37668 27.8623 3.37668 27.4555C3.37668 27.8623 3.70393 28.1896 4.11078 28.1896Z" fill="url(#paint6_linear)"/>
<path d="M10.7107 14.6721C10.3525 14.6721 10.0594 14.9652 10.0594 15.3234C10.0594 14.9652 9.76639 14.6721 9.4082 14.6721C9.76639 14.6721 10.0594 14.3791 10.0594 14.0209C10.0594 14.3899 10.3525 14.6721 10.7107 14.6721Z" fill="url(#paint7_linear)"/>
<path d="M11.2637 8.95207C10.8946 8.95207 10.6016 9.24513 10.6016 9.61417C10.6016 9.24513 10.3085 8.95207 9.93945 8.95207C10.3085 8.95207 10.6016 8.659 10.6016 8.28996C10.6124 8.659 10.9055 8.95207 11.2637 8.95207Z" fill="url(#paint8_linear)"/>
<path d="M19.1761 3.89403C18.8505 3.89403 18.59 4.15453 18.59 4.48015C18.59 4.15453 18.3295 3.89403 18.0039 3.89403C18.3295 3.89403 18.59 3.63353 18.59 3.30791C18.5792 3.62268 18.8505 3.89403 19.1761 3.89403Z" fill="url(#paint9_linear)"/>
<path d="M45.3839 18.9436C44.7652 17.7063 43.8101 16.6643 42.6487 15.9262C41.4656 15.1664 40.0545 14.7323 38.5458 14.7323C38.4915 14.7323 38.4264 14.7323 38.3721 14.7323L36.8417 14.9168C34.3344 15.4812 32.3047 17.2721 31.393 19.6275C31.0673 20.4849 30.8828 21.4075 30.8828 22.3844C30.8828 24.5661 31.7946 26.5415 33.2599 27.9308C34.2476 28.8643 35.4741 29.5481 36.8526 29.852C37.3953 29.9714 37.9597 30.0365 38.535 30.0365C42.7681 30.0365 46.198 26.6066 46.198 22.3735C46.2088 21.147 45.9158 19.9748 45.3839 18.9436Z" fill="#FBFBFB"/>
<path d="M45.5361 19.5682C45.0274 18.5501 44.2421 17.6928 43.2872 17.0855C42.3145 16.4603 41.1543 16.1031 39.9138 16.1031C39.8692 16.1031 39.8157 16.1031 39.771 16.1031L38.5127 16.2549C36.4512 16.7193 34.7824 18.1929 34.0327 20.1309C33.765 20.8364 33.6133 21.5955 33.6133 22.3993C33.6133 24.1944 34.3629 25.8198 35.5677 26.9629C36.3798 27.731 37.3883 28.2936 38.5216 28.5437C38.9679 28.6419 39.4319 28.6955 39.9049 28.6955C43.3854 28.6955 46.2054 25.8734 46.2054 22.3903C46.2144 21.3812 45.9734 20.4166 45.5361 19.5682Z" fill="#E4F0FA"/>
<path d="M44.7956 20.2961C44.3488 19.402 43.6591 18.649 42.8204 18.1156C41.9661 17.5666 40.9472 17.2528 39.8577 17.2528C39.8186 17.2528 39.7715 17.2528 39.7323 17.2528L38.6272 17.3862C36.8167 17.794 35.351 19.0882 34.6926 20.7903C34.4575 21.4099 34.3242 22.0766 34.3242 22.7825C34.3242 24.3591 34.9826 25.7866 36.0407 26.7906C36.754 27.4651 37.6396 27.9593 38.635 28.1789C39.0269 28.2652 39.4345 28.3122 39.8499 28.3122C42.9067 28.3122 45.3834 25.8337 45.3834 22.7747C45.3913 21.8884 45.1796 21.0413 44.7956 20.2961Z" fill="#FBFBFB"/>
<path d="M45.4418 21.2199C45.0283 20.3922 44.3897 19.6951 43.6134 19.2014C42.8225 18.6931 41.8792 18.4026 40.8707 18.4026C40.8344 18.4026 40.7909 18.4026 40.7546 18.4026L39.7315 18.5261C38.0554 18.9037 36.6986 20.1017 36.0891 21.6774C35.8714 22.251 35.748 22.8682 35.748 23.5217C35.748 24.9812 36.3575 26.3027 37.3371 27.2322C37.9974 27.8566 38.8173 28.3141 39.7388 28.5174C40.1015 28.5972 40.4789 28.6408 40.8634 28.6408C43.6932 28.6408 45.986 26.3463 45.986 23.5145C45.9933 22.694 45.7974 21.9098 45.4418 21.2199Z" fill="#E4F0FA"/>
<path d="M43.5256 21.8816C43.2779 21.3903 42.8955 20.9765 42.4305 20.6834C41.9568 20.3817 41.3919 20.2093 40.7878 20.2093C40.7661 20.2093 40.74 20.2093 40.7183 20.2093L40.1055 20.2826C39.1017 20.5067 38.289 21.2179 37.924 22.1532C37.7936 22.4937 37.7197 22.86 37.7197 23.2479C37.7197 24.1143 38.0848 24.8987 38.6714 25.4504C39.0669 25.8211 39.558 26.0926 40.1099 26.2133C40.3272 26.2607 40.5531 26.2865 40.7835 26.2865C42.4783 26.2865 43.8516 24.9246 43.8516 23.2436C43.8559 22.7566 43.7386 22.2911 43.5256 21.8816Z" fill="#FBFBFB"/>
<path d="M42.632 21.5913C42.4131 21.1531 42.075 20.7841 41.664 20.5227C41.2453 20.2536 40.7459 20.0998 40.212 20.0998C40.1928 20.0998 40.1697 20.0998 40.1505 20.0998L39.6089 20.1652C38.7215 20.3651 38.0032 20.9993 37.6805 21.8335C37.5653 22.1372 37.5 22.4639 37.5 22.8099C37.5 23.5826 37.8227 24.2822 38.3412 24.7743C38.6908 25.1049 39.1249 25.347 39.6127 25.4547C39.8048 25.497 40.0045 25.52 40.2081 25.52C41.7062 25.52 42.9201 24.3053 42.9201 22.8061C42.9239 22.3717 42.8202 21.9565 42.632 21.5913Z" fill="#E4F0FA"/>
<path d="M54.9844 27.5452C54.9844 28.381 54.9519 29.2059 54.8759 30.0308C54.3223 30.1502 53.7471 30.3022 53.1718 30.4867C52.3252 30.0417 51.3809 29.7052 50.3606 29.4772C51.5111 27.0025 52.1515 24.2564 52.1515 21.3692C52.1515 15.5731 49.5899 10.3632 45.5088 6.78131C51.3049 11.8176 54.9844 19.2527 54.9844 27.5452Z" fill="url(#paint10_linear)"/>
<path d="M13.6111 32.3945C13.2746 32.3945 13.0032 32.6659 13.0032 32.9915C13.0032 32.655 12.7319 32.3945 12.4062 32.3945C12.7427 32.3945 13.0032 32.1231 13.0032 31.7867C13.0141 32.1231 13.2746 32.3945 13.6111 32.3945Z" fill="url(#paint11_linear)"/>
<path d="M15.1221 38.1482C14.4045 38.1482 13.8258 38.7269 13.8258 39.4214C13.8258 38.7038 13.2472 38.1482 12.5527 38.1482C13.2703 38.1482 13.8258 37.5696 13.8258 36.852C13.849 37.5696 14.4045 38.1482 15.1221 38.1482Z" fill="url(#paint12_linear)"/>
<path d="M19.4541 37.1165C18.9825 37.1165 18.6022 37.4968 18.6022 37.9531C18.6022 37.4816 18.222 37.1165 17.7656 37.1165C18.2372 37.1165 18.6022 36.7363 18.6022 36.2647C18.6174 36.7363 18.9825 37.1165 19.4541 37.1165Z" fill="url(#paint13_linear)"/>
<path d="M22.0966 42.6937C21.7481 42.6937 21.467 42.9748 21.467 43.3121C21.467 42.9635 21.1859 42.6937 20.8486 42.6937C21.1972 42.6937 21.467 42.4126 21.467 42.0641C21.4782 42.4126 21.7481 42.6937 22.0966 42.6937Z" fill="url(#paint14_linear)"/>
<path d="M9.46949 28.5933C9.14743 28.5933 8.8822 28.842 8.8822 29.1439C8.8822 28.842 8.61698 28.5933 8.29492 28.5933C8.61698 28.5933 8.8822 28.3447 8.8822 28.0427C8.8822 28.3447 9.14743 28.5933 9.46949 28.5933Z" fill="url(#paint15_linear)"/>
<path d="M10.3503 32.8511C10.0283 32.8511 9.76306 33.0998 9.76306 33.4017C9.76306 33.0998 9.49784 32.8511 9.17578 32.8511C9.49784 32.8511 9.76306 32.6025 9.76306 32.3006C9.76306 32.6025 10.0283 32.8511 10.3503 32.8511Z" fill="url(#paint16_linear)"/>
<path d="M53.9566 28.011C53.6491 28.011 53.4011 28.259 53.4011 28.5566C53.4011 28.2491 53.1531 28.011 52.8555 28.011C53.163 28.011 53.4011 27.763 53.4011 27.4555C53.411 27.763 53.6491 28.011 53.9566 28.011Z" fill="url(#paint17_linear)"/>
<path d="M52.8552 24.6692C52.6502 24.6692 52.4848 24.8345 52.4848 25.0329C52.4848 24.8279 52.3195 24.6692 52.1211 24.6692C52.3261 24.6692 52.4848 24.5038 52.4848 24.2988C52.4915 24.5038 52.6502 24.6692 52.8552 24.6692Z" fill="url(#paint18_linear)"/>
<path d="M54.2499 25.734C54.0244 25.734 53.8425 25.9158 53.8425 26.1341C53.8425 25.9086 53.6606 25.734 53.4424 25.734C53.6679 25.734 53.8425 25.5521 53.8425 25.3266C53.8498 25.5521 54.0244 25.734 54.2499 25.734Z" fill="url(#paint19_linear)"/>
<path d="M53.7361 21.953C53.531 21.953 53.3657 22.1183 53.3657 22.3167C53.3657 22.1117 53.2004 21.953 53.002 21.953C53.207 21.953 53.3657 21.7877 53.3657 21.5826C53.3723 21.7877 53.531 21.953 53.7361 21.953Z" fill="url(#paint20_linear)"/>
<path d="M52.8562 17.4016C52.6512 17.4016 52.4858 17.5669 52.4858 17.7653C52.4858 17.5603 52.3205 17.4016 52.1221 17.4016C52.3271 17.4016 52.4858 17.2362 52.4858 17.0312C52.4924 17.2362 52.6512 17.4016 52.8562 17.4016Z" fill="url(#paint21_linear)"/>
<path d="M20.0408 47.4965C19.1965 46.689 18.5726 43.4589 15.0122 43.2387C10.057 42.6514 8.62546 38.3202 8.62546 38.3202L6.7168 38.9809C6.7168 38.9809 9.32286 43.4589 6.97373 45.7347C7.01044 45.7714 7.13381 45.9223 7.19396 45.9916C7.30025 46.1141 7.48761 46.2852 7.48761 46.2852L7.81795 46.6523L8.25842 47.0928L8.95581 47.7534L9.61651 48.3407L10.057 48.7078L10.7544 49.2584L11.4885 49.8089L12.1125 50.2494L12.8833 50.7633L13.6174 51.2037L14.3882 51.6442L15.0122 51.9745L15.6729 52.3049L16.407 52.6352L17.2512 53.0023L17.7283 53.1858L18.4257 53.4427L19.1965 53.6997L20.0408 53.9566L21.0318 54.2136L22.4266 54.5072L23.7847 54.7274L25.4731 54.9109L26.7211 54.9844L28.4095 49.5887C27.6999 49.2584 27.3408 48.4353 25.2162 48.0104C23.1974 47.6066 21.4356 48.8307 20.0408 47.4965Z" fill="url(#paint22_linear)"/>
<path d="M8.76957 41.1383C8.76957 41.1383 9.22885 40.5964 8.60031 38.5452L7.03289 39.2543C7.03289 39.2543 7.96781 41.0955 8.76957 41.1383Z" fill="url(#paint23_linear)"/>
<path d="M4.10725 35.7786C4.10725 35.7786 4.08891 38.5196 4.33556 39.0973C4.58228 39.675 6.52133 41.5857 6.51072 41.1463C6.50014 40.7068 5.64826 39.7506 6.21781 38.9226L5.12411 37.4745C4.92305 37.2292 4.74568 36.9664 4.59411 36.6885C4.45106 36.4266 4.26555 36.0831 4.10725 35.7786Z" fill="url(#paint24_linear)"/>
<path d="M7.85328 33.942C7.85328 33.942 9.931 35.7347 10.2038 36.3006C10.4766 36.8666 10.6386 39.5812 10.3144 39.2836C9.99015 38.9861 9.7999 37.802 8.80057 37.6839L8.46118 35.8229C8.40879 35.5103 8.32769 35.2041 8.21816 34.9072C8.11499 34.6271 7.97841 34.2615 7.85328 33.942Z" fill="url(#paint25_linear)"/>
<path d="M4.4697 36.7107C4.55779 36.8879 4.66652 37.0549 4.7923 37.2082L6.62179 39.4402L8.95676 38.3838C8.95676 38.3838 8.60501 36.025 8.4877 35.4355C8.18819 33.9314 6.57633 31.5827 4.80228 30.8879C4.45572 30.7522 4.0578 30.9263 3.90872 31.2674C3.57206 32.0381 3.16974 33.6746 4.18142 36.0826C4.26709 36.2865 4.36286 36.4958 4.4697 36.7107Z" fill="url(#paint26_linear)"/>
<path d="M3.90879 31.2682C3.54361 32.1041 3.10111 33.9587 4.46978 36.7115C4.55786 36.8887 4.66659 37.0557 4.7923 37.209L6.62184 39.4409L8.95683 38.3846C8.95683 38.3846 8.60508 36.0258 8.4877 35.4364C8.18826 33.9322 6.57634 31.5835 4.80228 30.8887C4.45579 30.753 4.05787 30.9271 3.90879 31.2682Z" fill="white"/>
<g opacity="0.399994">
<g opacity="0.399994">
<g opacity="0.399994">
<g opacity="0.399994">
<g opacity="0.399994">
<path opacity="0.399994" d="M6.3254 35.8252C6.70941 37.2348 6.86153 38.4783 6.62178 39.4409L7.56855 39.0126L6.3254 35.8252Z" fill="url(#paint27_linear)"/>
</g>
</g>
</g>
</g>
</g>
<g opacity="0.399994">
<g opacity="0.399994">
<g opacity="0.399994">
<g opacity="0.399994">
<g opacity="0.399994">
<path opacity="0.399994" d="M7.38557 33.115C7.38557 33.115 8.97888 37.1162 8.37189 38.6485L8.95546 38.3845C8.95546 38.3845 8.76976 34.6161 7.38557 33.115" fill="url(#paint28_linear)"/>
</g>
</g>
</g>
</g>
</g>
<g opacity="0.490005">
<g opacity="0.490005">
<path opacity="0.490005" d="M7.60629 33.4198C7.61139 33.434 7.39709 33.5248 7.05085 33.6699C6.70455 33.815 6.22709 34.0169 5.70522 34.2519C5.1833 34.4874 4.71591 34.7114 4.3779 34.8748C4.03988 35.0383 3.83 35.1388 3.82277 35.1255C3.8161 35.1134 4.01349 34.9899 4.34379 34.8092C4.67391 34.6285 5.13812 34.393 5.66207 34.1566C6.18599 33.9206 6.6699 33.7287 7.02402 33.601C7.37807 33.4731 7.60163 33.4068 7.60629 33.4198Z" fill="#8794CA"/>
</g>
</g>
<g opacity="0.490005">
<g opacity="0.490005">
<path opacity="0.490005" d="M7.81161 33.6871C7.81638 33.7013 7.59463 33.7901 7.23568 33.9304C6.87668 34.0706 6.38105 34.2644 5.83742 34.4874C5.29366 34.711 4.80484 34.9213 4.45088 35.0739C4.09687 35.2264 3.87675 35.319 3.87029 35.3055C3.86415 35.293 4.07304 35.1767 4.41995 35.0067C4.76664 34.8366 5.25231 34.6148 5.7977 34.3906C6.34302 34.1669 6.84444 33.9835 7.21055 33.8607C7.57682 33.738 7.80718 33.6739 7.81161 33.6871Z" fill="#8794CA"/>
</g>
</g>
<g opacity="0.429993">
<g opacity="0.429993">
<path opacity="0.429993" d="M9.01443 38.2335C9.02603 38.2599 8.47876 38.5242 7.79227 38.8235C7.10553 39.123 6.53956 39.3443 6.52803 39.3178C6.51641 39.2913 7.0636 39.0272 7.75031 38.7277C8.43687 38.4283 9.00287 38.2071 9.01443 38.2335Z" fill="#8794CA"/>
</g>
</g>
<g opacity="0.429993">
<g opacity="0.429993">
<path opacity="0.429993" d="M8.88222 38.0366C8.89408 38.0629 8.33599 38.338 7.63586 38.651C6.93553 38.964 6.35839 39.1962 6.34653 39.1699C6.33476 39.1436 6.89276 38.8684 7.59309 38.5554C8.29315 38.2425 8.87042 38.0102 8.88222 38.0366Z" fill="#8794CA"/>
</g>
</g>
<g opacity="0.190002">
<g opacity="0.190002">
<path opacity="0.190002" d="M6.68872 34.1862C6.84426 34.6532 6.58191 35.1631 6.10268 35.3247C5.62334 35.4865 5.10882 35.239 4.95325 34.7718C4.79776 34.3047 5.06015 33.7949 5.53936 33.6332C6.01857 33.4715 6.53325 33.7191 6.68872 34.1862Z" fill="#302D40"/>
</g>
</g>
<path d="M6.10554 35.1648C6.58482 35.0031 6.84728 34.4933 6.69168 34.0263C6.53616 33.559 6.02157 33.3115 5.54236 33.4732C5.06309 33.635 4.80065 34.1448 4.95619 34.6119C4.96338 34.6333 4.9712 34.6542 4.97982 34.6747C5.15892 35.1008 5.6484 35.3191 6.10554 35.1648" fill="url(#paint29_linear)"/>
<g opacity="0.279999">
<g opacity="0.279999">
<path opacity="0.279999" d="M5.30803 35.0667L5.97115 33.4331C5.97115 33.4331 6.27278 33.4971 6.39454 33.6102L5.635 35.1981C5.635 35.1981 5.37408 35.171 5.30803 35.0667Z" fill="#E9E9E9"/>
</g>
</g>
<g opacity="0.279999">
<g opacity="0.279999">
<path opacity="0.279999" d="M5.87216 35.2119L6.46742 33.6724L6.5817 33.8061L6.04991 35.1817L5.87216 35.2119Z" fill="#E9E9E9"/>
</g>
</g>
<g opacity="0.419998">
<g opacity="0.419998">
<path opacity="0.419998" d="M5.27804 36.2217C5.29337 36.2553 5.27769 36.2952 5.24316 36.3109C5.20863 36.3265 5.16821 36.3119 5.153 36.2783C5.13767 36.2447 5.15326 36.2048 5.18788 36.1892C5.22244 36.1736 5.2628 36.1881 5.27804 36.2217Z" fill="#8794CA"/>
</g>
</g>
<g opacity="0.419998">
<g opacity="0.419998">
<path opacity="0.419998" d="M5.35812 36.4007C5.37336 36.4343 5.3577 36.4742 5.32317 36.4899C5.28861 36.5055 5.24829 36.4909 5.23299 36.4573C5.21768 36.4237 5.23334 36.3838 5.2679 36.3682C5.3025 36.3525 5.34282 36.3671 5.35812 36.4007Z" fill="#8794CA"/>
</g>
</g>
<g opacity="0.419998">
<g opacity="0.419998">
<path opacity="0.419998" d="M5.44702 36.5975C5.46225 36.6311 5.44659 36.671 5.4121 36.6866C5.37751 36.7023 5.33716 36.6876 5.32188 36.6541C5.30655 36.6204 5.32221 36.5805 5.35679 36.565C5.39139 36.5493 5.43168 36.5638 5.44702 36.5975Z" fill="#8794CA"/>
</g>
</g>
<path d="M6.41654 35.7108C6.41654 35.7108 6.09844 35.9159 6.81447 37.4915C7.68658 39.4101 8.24792 40.3697 8.41136 40.2787C8.57482 40.1877 7.03044 35.3258 6.41654 35.7108Z" fill="url(#paint30_linear)"/>
<path d="M3.54159 32.9915C3.54159 32.9915 5.14435 33.0329 6.20624 31.786C6.20624 31.786 4.95445 30.4232 4.20983 30.9318C3.46525 31.4403 3.54159 32.9915 3.54159 32.9915Z" fill="url(#paint31_linear)"/>
<path d="M82.6675 31.9639C82.6675 31.2168 82.4038 30.6455 81.8765 30.25C81.3491 29.8457 80.3999 29.4238 79.0288 28.9844C77.6577 28.5361 76.5723 28.0967 75.7725 27.666C73.5928 26.4883 72.5029 24.9019 72.5029 22.9067C72.5029 21.8696 72.793 20.9468 73.373 20.1382C73.9619 19.3208 74.8013 18.6836 75.8911 18.2266C76.9897 17.7695 78.2202 17.541 79.5825 17.541C80.9536 17.541 82.1753 17.7915 83.2476 18.2925C84.3198 18.7847 85.1504 19.4834 85.7393 20.3887C86.3369 21.2939 86.6357 22.3223 86.6357 23.4736H82.6807C82.6807 22.5947 82.4038 21.9136 81.8501 21.4302C81.2964 20.938 80.5186 20.6919 79.5166 20.6919C78.5498 20.6919 77.7983 20.8984 77.2622 21.3115C76.7261 21.7158 76.458 22.252 76.458 22.9199C76.458 23.5439 76.77 24.0669 77.394 24.4888C78.0269 24.9106 78.9541 25.3062 80.1758 25.6753C82.4258 26.3521 84.0649 27.1914 85.0933 28.1934C86.1216 29.1953 86.6357 30.4434 86.6357 31.9375C86.6357 33.5986 86.0073 34.9038 84.7505 35.853C83.4937 36.7935 81.8018 37.2637 79.6748 37.2637C78.1982 37.2637 76.8535 36.9956 75.6406 36.4595C74.4277 35.9146 73.5005 35.1719 72.8589 34.2314C72.2261 33.291 71.9097 32.2012 71.9097 30.9619H75.8779C75.8779 33.0801 77.1436 34.1392 79.6748 34.1392C80.6152 34.1392 81.3491 33.9502 81.8765 33.5723C82.4038 33.1855 82.6675 32.6494 82.6675 31.9639ZM95.3369 29.3008L93.2803 31.5156V37H89.3252V17.8047H93.2803V26.5059L95.0205 24.1196L99.9116 17.8047H104.776L97.9604 26.3345L104.974 37H100.268L95.3369 29.3008ZM113.082 26.4531L117.077 17.8047H121.401L115.099 30.0391V37H111.078V30.0391L104.776 17.8047H109.114L113.082 26.4531ZM138.764 37H134.809L127.109 24.3701V37H123.154V17.8047H127.109L134.822 30.4609V17.8047H138.764V37ZM157.985 27.8374C157.985 29.7271 157.651 31.3838 156.983 32.8076C156.315 34.2314 155.357 35.3301 154.109 36.1035C152.87 36.877 151.446 37.2637 149.838 37.2637C148.247 37.2637 146.828 36.8813 145.58 36.1167C144.332 35.3521 143.365 34.2622 142.679 32.8472C141.994 31.4233 141.646 29.7886 141.638 27.9429V26.9937C141.638 25.104 141.976 23.4429 142.653 22.0103C143.338 20.5688 144.301 19.4658 145.54 18.7012C146.788 17.9277 148.212 17.541 149.812 17.541C151.411 17.541 152.831 17.9277 154.07 18.7012C155.318 19.4658 156.28 20.5688 156.957 22.0103C157.643 23.4429 157.985 25.0996 157.985 26.9805V27.8374ZM153.978 26.9673C153.978 24.9546 153.617 23.4253 152.896 22.3794C152.176 21.3335 151.147 20.8105 149.812 20.8105C148.484 20.8105 147.46 21.3291 146.74 22.3662C146.019 23.3945 145.654 24.9062 145.646 26.9014V27.8374C145.646 29.7974 146.006 31.3179 146.727 32.3989C147.447 33.48 148.484 34.0205 149.838 34.0205C151.165 34.0205 152.185 33.502 152.896 32.4648C153.608 31.4189 153.969 29.8984 153.978 27.9033V26.9673ZM167.438 24.4229L171.037 17.8047H175.585L169.996 27.3232L175.73 37H171.129L167.438 30.2764L163.747 37H159.146L164.88 27.3232L159.291 17.8047H163.839L167.438 24.4229Z" fill="#EF6078"/>
<defs>
<linearGradient id="paint0_linear" x1="0.0743646" y1="27.5242" x2="44.6846" y2="27.5242" gradientUnits="userSpaceOnUse">
<stop stop-color="#FE6A77"/>
<stop offset="1" stop-color="#C91C91"/>
</linearGradient>
<radialGradient id="paint1_radial" cx="0" cy="0" r="1" gradientUnits="userSpaceOnUse" gradientTransform="translate(61.5 5) rotate(153.144) scale(52.8817 50.5787)">
<stop stop-color="#3B0E64"/>
<stop offset="0.1639" stop-color="#450B63"/>
<stop offset="0.3957" stop-color="#5A0362"/>
<stop offset="0.4848" stop-color="#5D0462"/>
<stop offset="0.5614" stop-color="#680661"/>
<stop offset="0.6334" stop-color="#7A0A61"/>
<stop offset="0.7026" stop-color="#931060"/>
<stop offset="0.744792" stop-color="#A7155F"/>
<stop offset="0.7691" stop-color="#B2185F"/>
<stop offset="0.8339" stop-color="#D9215D"/>
<stop offset="0.834" stop-color="#DA215D"/>
<stop offset="1" stop-color="#FFE08D"/>
</radialGradient>
<linearGradient id="paint2_linear" x1="6.19089" y1="20.0856" x2="2.85199" y2="20.0856" gradientUnits="userSpaceOnUse">
<stop stop-color="#E5EFFA"/>
<stop offset="1" stop-color="white"/>
</linearGradient>
<linearGradient id="paint3_linear" x1="15.3705" y1="7.77195" x2="14.4836" y2="7.77195" gradientUnits="userSpaceOnUse">
<stop stop-color="#E5EFFA"/>
<stop offset="1" stop-color="white"/>
</linearGradient>
<linearGradient id="paint4_linear" x1="8.12286" y1="17.202" x2="6.84469" y2="17.202" gradientUnits="userSpaceOnUse">
<stop stop-color="#E5EFFA"/>
<stop offset="1" stop-color="white"/>
</linearGradient>
<linearGradient id="paint5_linear" x1="11.4582" y1="22.2739" x2="9.29312" y2="22.2739" gradientUnits="userSpaceOnUse">
<stop stop-color="#E5EFFA"/>
<stop offset="1" stop-color="white"/>
</linearGradient>
<linearGradient id="paint6_linear" x1="4.26927" y1="26.6626" x2="2.50503" y2="26.6626" gradientUnits="userSpaceOnUse">
<stop stop-color="#E5EFFA"/>
<stop offset="1" stop-color="white"/>
</linearGradient>
<linearGradient id="paint7_linear" x1="10.8513" y1="13.3175" x2="9.28618" y2="13.3175" gradientUnits="userSpaceOnUse">
<stop stop-color="#E5EFFA"/>
<stop offset="1" stop-color="white"/>
</linearGradient>
<linearGradient id="paint8_linear" x1="11.4066" y1="7.57483" x2="9.8154" y2="7.57483" gradientUnits="userSpaceOnUse">
<stop stop-color="#E5EFFA"/>
<stop offset="1" stop-color="white"/>
</linearGradient>
<linearGradient id="paint9_linear" x1="19.3027" y1="2.67484" x2="17.8941" y2="2.67484" gradientUnits="userSpaceOnUse">
<stop stop-color="#E5EFFA"/>
<stop offset="1" stop-color="white"/>
</linearGradient>
<linearGradient id="paint10_linear" x1="48.094" y1="-1.2699" x2="56.589" y2="-0.46374" gradientUnits="userSpaceOnUse">
<stop stop-color="#7129C8"/>
<stop offset="1" stop-color="#990760"/>
</linearGradient>
<linearGradient id="paint11_linear" x1="13.7411" y1="31.136" x2="12.2934" y2="31.136" gradientUnits="userSpaceOnUse">
<stop stop-color="#E5EFFA"/>
<stop offset="1" stop-color="white"/>
</linearGradient>
<linearGradient id="paint12_linear" x1="15.3994" y1="35.4644" x2="12.312" y2="35.4644" gradientUnits="userSpaceOnUse">
<stop stop-color="#E5EFFA"/>
<stop offset="1" stop-color="white"/>
</linearGradient>
<linearGradient id="paint13_linear" x1="19.6363" y1="35.3529" x2="17.6074" y2="35.3529" gradientUnits="userSpaceOnUse">
<stop stop-color="#E5EFFA"/>
<stop offset="1" stop-color="white"/>
</linearGradient>
<linearGradient id="paint14_linear" x1="22.2313" y1="41.3901" x2="20.7317" y2="41.3901" gradientUnits="userSpaceOnUse">
<stop stop-color="#E5EFFA"/>
<stop offset="1" stop-color="white"/>
</linearGradient>
<linearGradient id="paint15_linear" x1="9.59627" y1="27.4481" x2="8.18489" y2="27.4481" gradientUnits="userSpaceOnUse">
<stop stop-color="#E5EFFA"/>
<stop offset="1" stop-color="white"/>
</linearGradient>
<linearGradient id="paint16_linear" x1="10.4771" y1="31.7059" x2="9.06574" y2="31.7059" gradientUnits="userSpaceOnUse">
<stop stop-color="#E5EFFA"/>
<stop offset="1" stop-color="white"/>
</linearGradient>
<linearGradient id="paint17_linear" x1="54.0755" y1="26.8608" x2="52.7523" y2="26.8608" gradientUnits="userSpaceOnUse">
<stop stop-color="#E5EFFA"/>
<stop offset="1" stop-color="white"/>
</linearGradient>
<linearGradient id="paint18_linear" x1="52.9344" y1="23.9024" x2="52.0523" y2="23.9024" gradientUnits="userSpaceOnUse">
<stop stop-color="#E5EFFA"/>
<stop offset="1" stop-color="white"/>
</linearGradient>
<linearGradient id="paint19_linear" x1="54.3371" y1="24.8905" x2="53.3667" y2="24.8905" gradientUnits="userSpaceOnUse">
<stop stop-color="#E5EFFA"/>
<stop offset="1" stop-color="white"/>
</linearGradient>
<linearGradient id="paint20_linear" x1="53.8153" y1="21.1862" x2="52.9332" y2="21.1862" gradientUnits="userSpaceOnUse">
<stop stop-color="#E5EFFA"/>
<stop offset="1" stop-color="white"/>
</linearGradient>
<linearGradient id="paint21_linear" x1="52.9354" y1="16.6348" x2="52.0533" y2="16.6348" gradientUnits="userSpaceOnUse">
<stop stop-color="#E5EFFA"/>
<stop offset="1" stop-color="white"/>
</linearGradient>
<linearGradient id="paint22_linear" x1="5.06507" y1="34.0991" x2="26.5376" y2="54.9844" gradientUnits="userSpaceOnUse">
<stop stop-color="white"/>
<stop offset="1" stop-color="white" stop-opacity="0.65"/>
</linearGradient>
<linearGradient id="paint23_linear" x1="8.75902" y1="41.1427" x2="7.80758" y2="38.8783" gradientUnits="userSpaceOnUse">
<stop stop-color="#FF9E44"/>
<stop offset="1" stop-color="#FFD12E"/>
</linearGradient>
<linearGradient id="paint24_linear" x1="5.92578" y1="38.2276" x2="4.26357" y2="38.926" gradientUnits="userSpaceOnUse">
<stop stop-color="#6D01AE"/>
<stop offset="1" stop-color="#8A25C7"/>
</linearGradient>
<linearGradient id="paint25_linear" x1="10.1561" y1="36.1851" x2="8.46871" y2="36.8941" gradientUnits="userSpaceOnUse">
<stop stop-color="#8923C6"/>
<stop offset="1" stop-color="#6D01AE"/>
</linearGradient>
<linearGradient id="paint26_linear" x1="7.21295" y1="37.5102" x2="-14.7273" y2="-9.78701" gradientUnits="userSpaceOnUse">
<stop stop-color="#3A3759"/>
<stop offset="1" stop-color="#546496"/>
</linearGradient>
<linearGradient id="paint27_linear" x1="6.55834" y1="37.8148" x2="-15.3817" y2="-9.48195" gradientUnits="userSpaceOnUse">
<stop stop-color="#3A3759"/>
<stop offset="1" stop-color="#546496"/>
</linearGradient>
<linearGradient id="paint28_linear" x1="8.45563" y1="36.9339" x2="-13.4847" y2="-10.3635" gradientUnits="userSpaceOnUse">
<stop stop-color="#3A3759"/>
<stop offset="1" stop-color="#546496"/>
</linearGradient>
<linearGradient id="paint29_linear" x1="6.12415" y1="35.1597" x2="6.31676" y2="33.6338" gradientUnits="userSpaceOnUse">
<stop stop-color="#ACE6FF"/>
<stop offset="1" stop-color="#52CAFF"/>
</linearGradient>
<linearGradient id="paint30_linear" x1="7.73835" y1="37.8575" x2="7.07958" y2="38.1343" gradientUnits="userSpaceOnUse">
<stop stop-color="#8721C5"/>
<stop offset="1" stop-color="#6F04B0"/>
</linearGradient>
<linearGradient id="paint31_linear" x1="5.93818" y1="31.0841" x2="3.27384" y2="32.3543" gradientUnits="userSpaceOnUse">
<stop stop-color="#6D01AE"/>
<stop offset="0.505208" stop-color="#8B25C8"/>
<stop offset="1" stop-color="#6D01AE"/>
</linearGradient>
</defs>
</svg>